# File created by Blade
# Date/Time:  Tue Jan 27 18:55:50 2015
# Frame Rate: 120.000 fps
#------------------------------------------------------
:FULLY-SPECIFIED
:DEGREES
3299
root -1.918047 32.685863 -5.641597 47.686486 -30.489409 -28.080641
Spine -1.073559 14.187512 -3.510378
Head -9.411341 19.291316 8.873693
LeftShoulder -19.220733 21.420639 16.568535
LeftArm -9.730123 -56.415563 -68.876878
LeftForeArm -23.491325 -0.000000 123.652929
LeftHand -13.682868 -0.000000 37.873166
LeftHandThumb1 -26.253704 0.000000 33.147579
RightShoulder -1.690961 13.254023 -6.070819
RightArm 26.858781 -44.242960 78.691897
RightForeArm -30.337047 -0.000000 27.279412
RightHand -16.378259 0.000000 6.585512
RightHandThumb1 -24.326973 -0.000000 -32.862282
LeftUpLeg -40.587478 10.944507 9.939280
LeftLeg 23.326239 -0.000000 -0.000000
LeftFoot -32.241092 25.717856 -25.389650
LeftToeBase 11.267635 -0.000000 -0.000000
RightUpLeg 1.769451 -23.527268 -7.831926
RightLeg 2.809623 -0.000000 -0.000000
RightFoot -10.233551 0.330610 30.316729
RightToeBase 7.798933 -0.000000 -0.000000
3300
root -1.921987 32.667434 -5.627966 47.454890 -30.460979 -27.966696
Spine -1.051107 14.150871 -3.543408
Head -9.217947 19.284002 9.053361
LeftShoulder -19.242204 21.404715 16.601404
LeftArm -9.896101 -56.340839 -68.740519
LeftForeArm -23.202490 -0.000000 123.576458
LeftHand -13.827612 -0.000000 38.027576
LeftHandThumb1 -26.253704 0.000000 33.147579
RightShoulder -1.676195 13.192368 -5.993570
RightArm 26.779338 -44.357399 78.714442
RightForeArm -30.198469 -0.000000 27.177307
RightHand -16.399979 -0.000000 6.534718
RightHandThumb1 -24.326973 -0.000000 -32.862282
LeftUpLeg -40.546055 10.932157 9.837237
LeftLeg 23.562382 -0.000000 -0.000000
LeftFoot -32.482120 25.537077 -25.602838
LeftToeBase 11.513462 -0.000000 -0.000000
RightUpLeg 1.717617 -23.484363 -7.831509
RightLeg 3.190297 -0.000000 -0.000000
RightFoot -10.399246 -0.132475 30.212295
RightToeBase 7.946520 -0.000000 -0.000000
3301
root -1.928995 32.650882 -5.612377 47.230482 -30.434278 -27.872919
Spine -1.040460 14.127258 -3.577117
Head -9.015615 19.273554 9.243501
LeftShoulder -19.263843 21.418739 16.631877
LeftArm -10.019980 -56.287879 -68.668043
LeftForeArm -22.788336 -0.000000 123.503768
LeftHand -13.935088 0.000000 38.158569
LeftHandThumb1 -26.253704 0.000000 33.147579
RightShoulder -1.684221 13.114403 -5.892834
RightArm 26.633269 -44.401186 78.793966
RightForeArm -30.232788 -0.000000 27.160871
RightHand -16.275321 -0.000000 6.792576
RightHandThumb1 -24.326973 -0.000000 -32.862282
LeftUpLeg -40.483474 10.953202 9.745807
LeftLeg 23.798606 -0.000000 -0.000000
LeftFoot -32.678242 25.319739 -25.771757
LeftToeBase 11.617290 -0.000000 -0.000000
RightUpLeg 1.678390 -23.275652 -7.806488
RightLeg 3.566063 -0.000000 -0.000000
RightFoot -10.608417 -0.668961 30.174014
RightToeBase 7.776554 -0.000000 -0.000000
3302
root -1.937228 32.636582 -5.596465 47.017250 -30.408183 -27.773926
Spine -1.054077 14.122858 -3.636009
Head -8.842987 19.213673 9.452824
LeftShoulder -19.284197 21.437349 16.662948
LeftArm -10.033362 -56.213325 -68.690937
LeftForeArm -22.412336 -0.000000 123.479179
LeftHand -14.099506 -0.000000 38.466715
LeftHandThumb1 -26.253704 0.000000 33.147579
RightShoulder -1.741677 13.045691 -5.763795
RightArm 26.532581 -44.558434 78.781836
RightForeArm -30.135914 -0.000000 27.167786
RightHand -16.255711 0.000000 6.820317
RightHandThumb1 -24.326973 -0.000000 -32.862282
LeftUpLeg -40.407611 10.981833 9.645798
LeftLeg 23.974218 -0.000000 -0.000000
LeftFoot -32.825341 25.140627 -25.888524
LeftToeBase 11.697596 -0.000000 -0.000000
RightUpLeg 1.655521 -22.917106 -7.771031
RightLeg 3.898611 -0.000000 -0.000000
RightFoot -10.893561 -1.277770 30.251186
RightToeBase 8.154789 -0.000000 -0.000000
3303
root -1.945747 32.623748 -5.579182 46.799319 -30.397350 -27.662622
Spine -1.070151 14.150747 -3.718194
Head -8.697725 19.117578 9.663715
LeftShoulder -19.265661 21.498002 16.695497
LeftArm -10.001178 -56.148040 -68.786184
LeftForeArm -21.991707 -0.000000 123.451349
LeftHand -14.209896 -0.000000 38.791502
LeftHandThumb1 -26.253704 0.000000 33.147579
RightShoulder -1.831265 12.910412 -5.635025
RightArm 26.482642 -44.661998 78.752068
RightForeArm -30.080181 -0.000000 27.203026
RightHand -16.238819 -0.000000 6.801546
RightHandThumb1 -24.326973 -0.000000 -32.862282
LeftUpLeg -40.314783 11.051390 9.506739
LeftLeg 24.115160 -0.000000 -0.000000
LeftFoot -32.966951 24.898027 -26.001406
LeftToeBase 11.872141 -0.000000 -0.000000
RightUpLeg 1.636617 -22.554954 -7.750428
RightLeg 4.241110 -0.000000 -0.000000
RightFoot -11.092423 -1.872477 29.943153
RightToeBase 7.916162 -0.000000 -0.000000
3304
root -1.956489 32.612877 -5.558776 46.571991 -30.366002 -27.531309
Spine -1.066351 14.166501 -3.802707
Head -8.656302 19.025548 9.816399
LeftShoulder -19.292589 21.452218 16.700838
LeftArm -9.927872 -56.082614 -68.872948
LeftForeArm -21.462860 -0.000000 123.440580
LeftHand -14.324797 -0.000000 39.064972
LeftHandThumb1 -26.253704 0.000000 33.147579
RightShoulder -2.008377 12.801041 -5.506511
RightArm 26.481923 -44.889775 78.644393
RightForeArm -29.870076 -0.000000 27.273737
RightHand -16.204335 -0.000000 6.890588
RightHandThumb1 -24.326973 -0.000000 -32.862282
LeftUpLeg -40.200936 11.084463 9.378247
LeftLeg 24.219173 -0.000000 -0.000000
LeftFoot -33.093470 24.655458 -26.125974
LeftToeBase 12.073969 -0.000000 -0.000000
RightUpLeg 1.670904 -22.092922 -7.726228
RightLeg 4.512898 -0.000000 -0.000000
RightFoot -11.505673 -2.294711 30.372933
RightToeBase 8.614174 -0.000000 -0.000000
3305
root -1.965965 32.603435 -5.538623 46.348794 -30.354587 -27.378215
Spine -1.104172 14.138651 -3.926333
Head -8.547767 18.876765 9.986528
LeftShoulder -19.332696 21.506791 16.696513
LeftArm -9.786906 -56.014295 -69.041998
LeftForeArm -20.943379 -0.000000 123.450972
LeftHand -14.427368 -0.000000 39.397630
LeftHandThumb1 -26.253704 0.000000 33.147579
RightShoulder -2.081144 12.681589 -5.374984
RightArm 26.371696 -44.984555 78.688234
RightForeArm -29.929809 -0.000000 27.323837
RightHand -16.147741 0.000000 6.865877
RightHandThumb1 -24.326973 -0.000000 -32.862282
LeftUpLeg -40.078178 11.132980 9.208607
LeftLeg 24.260580 -0.000000 -0.000000
LeftFoot -33.169286 24.458440 -26.181813
LeftToeBase 12.236380 -0.000000 -0.000000
RightUpLeg 1.682162 -21.596220 -7.715095
RightLeg 4.813392 -0.000000 -0.000000
RightFoot -11.703154 -2.859075 30.093204
RightToeBase 8.096627 -0.000000 -0.000000
3306
root -1.977111 32.598205 -5.519187 46.158164 -30.346851 -27.247503
Spine -1.166218 14.127062 -4.048737
Head -8.447369 18.801056 10.131884
LeftShoulder -19.329041 21.416414 16.725059
LeftArm -9.917043 -55.937643 -68.995373
LeftForeArm -20.360717 -0.000000 123.500401
LeftHand -14.616139 -0.000000 39.706607
LeftHandThumb1 -26.253704 0.000000 33.147579
RightShoulder -2.152139 12.615266 -5.250092
RightArm 26.102150 -44.991948 78.876427
RightForeArm -29.944141 -0.000000 27.442734
RightHand -16.091110 0.000000 6.996826
RightHandThumb1 -24.326973 -0.000000 -32.862282
LeftUpLeg -39.962166 11.235358 9.033674
LeftLeg 24.275623 -0.000000 -0.000000
LeftFoot -33.223676 24.209202 -26.272084
LeftToeBase 12.447108 -0.000000 -0.000000
RightUpLeg 1.701172 -20.952018 -7.672181
RightLeg 5.062578 -0.000000 -0.000000
RightFoot -12.088073 -3.280973 30.662025
RightToeBase 8.336383 -0.000000 -0.000000
3307
root -1.988582 32.594933 -5.500845 45.981870 -30.333662 -27.109260
Spine -1.250152 14.089636 -4.177220
Head -8.337272 18.739665 10.259107
LeftShoulder -19.341971 21.436232 16.741475
LeftArm -9.824656 -55.914237 -69.167128
LeftForeArm -19.768991 -0.000000 123.521795
LeftHand -14.768058 0.000000 40.160879
LeftHandThumb1 -26.253704 0.000000 33.147579
RightShoulder -2.236159 12.547698 -5.134173
RightArm 25.997644 -45.218022 78.878950
RightForeArm -29.708810 -0.000000 27.533561
RightHand -16.078282 -0.000000 6.889951
RightHandThumb1 -24.326973 -0.000000 -32.862282
LeftUpLeg -39.866872 11.372459 8.838707
LeftLeg 24.284127 -0.000000 -0.000000
LeftFoot -33.241228 23.924414 -26.317162
LeftToeBase 12.599488 -0.000000 -0.000000
RightUpLeg 1.688544 -20.411480 -7.615361
RightLeg 5.372505 -0.000000 -0.000000
RightFoot -12.284827 -3.796211 30.640915
RightToeBase 8.507133 -0.000000 -0.000000
3308
root -2.002755 32.593775 -5.483799 45.805047 -30.283948 -26.973461
Spine -1.328557 14.066361 -4.287683
Head -8.257862 18.643117 10.369984
LeftShoulder -19.395793 21.433173 16.758146
LeftArm -9.586708 -55.800928 -69.445489
LeftForeArm -19.155528 -0.000000 123.583229
LeftHand -15.012123 -0.000000 40.539988
LeftHandThumb1 -26.253704 0.000000 33.147579
RightShoulder -2.359862 12.411873 -5.024559
RightArm 25.930563 -45.351385 78.905269
RightForeArm -29.649205 -0.000000 27.626966
RightHand -16.059682 0.000000 6.839851
RightHandThumb1 -24.326973 -0.000000 -32.862282
LeftUpLeg -39.766561 11.479267 8.687264
LeftLeg 24.279894 -0.000000 -0.000000
LeftFoot -33.289123 23.602355 -26.449115
LeftToeBase 12.861087 -0.000000 -0.000000
RightUpLeg 1.725002 -19.911488 -7.535704
RightLeg 5.621565 -0.000000 -0.000000
RightFoot -12.554278 -4.119195 30.951228
RightToeBase 8.450573 -0.000000 -0.000000
